<svg xmlns="http://www.w3.org/2000/svg" width="24.28" height="22.747" viewBox="0 0 24.28 22.747">
  <g id="Group_769" data-name="Group 769" transform="translate(-632.721 -127)">
    <g id="music" transform="translate(632.721 129.56)">
      <g id="Group_727" data-name="Group 727" transform="translate(0 0)">
        <path id="Path_1041" data-name="Path 1041" d="M19.947.188a.732.732,0,0,0-.56-.18L6.409,1.45a.721.721,0,0,0-.642.717V15.015A4.172,4.172,0,0,0,3.6,14.423c-1.988,0-3.6,1.293-3.6,2.884s1.617,2.884,3.6,2.884,3.6-1.293,3.6-2.884V6.421L18.745,5.136v8.435a4.172,4.172,0,0,0-2.163-.59c-1.988,0-3.6,1.293-3.6,2.884s1.617,2.884,3.6,2.884,3.6-1.293,3.6-2.884V.725A.721.721,0,0,0,19.947.188Z" transform="translate(0 -0.004)" fill="#2767fa"/>
      </g>
    </g>
    <g id="Group_742" data-name="Group 742" transform="translate(646.591 127)">
      <path id="Path_1054" data-name="Path 1054" d="M3.722,0A3.722,3.722,0,1,1,0,3.722,3.722,3.722,0,0,1,3.722,0Z" transform="translate(1.431 1.489)" fill="#fff"/>
      <path id="Subtraction_6" data-name="Subtraction 6" d="M5,10a5,5,0,1,1,5-5A5.006,5.006,0,0,1,5,10ZM3.664,4.655a.345.345,0,0,0,0,.69h.991v.991a.345.345,0,0,0,.69,0V5.345h.991a.345.345,0,0,0,0-.69H5.345V3.664a.345.345,0,0,0-.69,0v.991Z" transform="translate(0.409)" fill="#2767fa"/>
    </g>
  </g>
</svg>
