<svg xmlns="http://www.w3.org/2000/svg" width="14.062" height="14.062" viewBox="0 0 14.062 14.062">
  <g id="edit" transform="translate(0 -0.004)">
    <g id="Group_455" data-name="Group 455" transform="translate(0 1.008)">
      <g id="Group_454" data-name="Group 454">
        <path id="Path_934" data-name="Path 934" d="M11.551,40.163a.5.5,0,0,0-.5.5v5.022a.5.5,0,0,1-.5.5H1.507a.5.5,0,0,1-.5-.5V35.644a.5.5,0,0,1,.5-.5H7.533a.5.5,0,1,0,0-1H1.507A1.507,1.507,0,0,0,0,35.644V45.688a1.507,1.507,0,0,0,1.507,1.507h9.04a1.507,1.507,0,0,0,1.507-1.507V40.666A.5.5,0,0,0,11.551,40.163Z" transform="translate(0 -34.137)" fill="#2767fa"/>
      </g>
    </g>
    <g id="Group_457" data-name="Group 457" transform="translate(3.014 0.004)">
      <g id="Group_456" data-name="Group 456" transform="translate(0 0)">
        <path id="Path_935" data-name="Path 935" d="M112.894.567a1.922,1.922,0,0,0-2.719,0L103.56,7.182a.508.508,0,0,0-.121.2l-1,3.013a.5.5,0,0,0,.476.661.51.51,0,0,0,.159-.026l3.013-1a.5.5,0,0,0,.2-.122l6.615-6.615A1.923,1.923,0,0,0,112.894.567Z" transform="translate(-102.409 -0.004)" fill="#2767fa"/>
      </g>
    </g>
  </g>
</svg>
