<svg height="42" viewBox="0 0 42 42" width="42" xmlns="http://www.w3.org/2000/svg"><circle cx="21" cy="21" fill="#eaf0ff" r="21"/><g fill="#2767fa"><path d="m15.306 19.436a1.417 1.417 0 0 0 -.415-1 1.583 1.583 0 0 0 .408-1.217 1.648 1.648 0 0 0 -1.663-1.446h-3.936a9.17 9.17 0 0 0 .508-2.551 2.606 2.606 0 0 0 -1.913-2.551 2 2 0 0 0 -1.156.388.319.319 0 0 0 -.12.249v2.163l-1.841 3.975-.076.039v-.122a.319.319 0 0 0 -.319-.319h-3.189a1.6 1.6 0 0 0 -1.594 1.595v5.1a1.6 1.6 0 0 0 1.594 1.594h1.914a1.6 1.6 0 0 0 1.5-1.054 4.157 4.157 0 0 0 1.692.421h5.85a1.467 1.467 0 0 0 1.45-1.116 1.44 1.44 0 0 0 -.115-.959 1.43 1.43 0 0 0 .638-1.913 1.429 1.429 0 0 0 .783-1.276zm-1.345.787a.319.319 0 0 0 -.182.549.79.79 0 0 1 -.455 1.364.319.319 0 0 0 -.182.549.789.789 0 0 1 .231.761.825.825 0 0 1 -.822.614h-5.851a3.023 3.023 0 0 1 -1.688-.545.319.319 0 0 0 -.545.226.958.958 0 0 1 -.957.957h-1.916a.958.958 0 0 1 -.957-.957v-5.1a.958.958 0 0 1 .957-.957h2.87v.316a.32.32 0 0 0 .152.272.326.326 0 0 0 .31.013l.638-.319a.318.318 0 0 0 .147-.151l1.913-4.145a.325.325 0 0 0 .029-.134v-2.058a1.345 1.345 0 0 1 .638-.173 2.105 2.105 0 0 1 1.276 1.913 9.93 9.93 0 0 1 -.617 2.756.318.318 0 0 0 .3.432h4.388a1.007 1.007 0 0 1 1.028.867.953.953 0 0 1 -.454.9.319.319 0 0 0 .022.555.79.79 0 0 1 -.27 1.492z" transform="translate(13.347 2.334)"/><path d="m149.652 245.333a.319.319 0 0 0 -.319.319v5.74a.319.319 0 0 0 .638 0v-5.74a.319.319 0 0 0 -.319-.319z" transform="translate(-131.522 -225.317)"/><path d="m10120.862 20346.709c-.983.91-.462 3.387-.462 3.387s-.445 2.486.409 3.338 3.021.277 3.021.277l.594-.473.316-1.389.291.787.6.477a31.847 31.847 0 0 0 4.027.125c3.184-.012 3.716-.549 3.716-.549v-.617l.1-.588.5-.514.27-.875-.27-.7.735-.672v-.973l-.4-.336.4-.963-.075-.941-1.031-.457h-3.124l-1.2-.143.282-1.389.178-2.012-1.155-1.361-.781-.154-.3.387-.228 2.248-1.181 2.973-1.056 1.441-.291.852.217-1.062-.377-.48s-2.74-.553-3.725.356z" transform="translate(-10106.587 -20326.541)"/></g></svg>