<svg xmlns="http://www.w3.org/2000/svg" width="41" height="41" viewBox="0 0 41 41">
  <g id="Group_797" data-name="Group 797" transform="translate(-474.549 -1390.548)">
    <path id="Path_1058" data-name="Path 1058" d="M15,0A15,15,0,1,1,0,15,15,15,0,0,1,15,0Z" transform="translate(480.548 1396.548)" fill="#fff"/>
    <g id="Group_753" data-name="Group 753" transform="translate(474.99 1390.99)">
      <path id="Subtraction_7" data-name="Subtraction 7" d="M20.5,41A20.5,20.5,0,0,1,6,6,20.5,20.5,0,0,1,35,35,20.366,20.366,0,0,1,20.5,41ZM17.086,13.37a1.143,1.143,0,0,0-1.141,1.142V26.49a1.137,1.137,0,0,0,1.713.984l10.267-5.989a1.139,1.139,0,0,0,0-1.967l-10.267-5.99A1.122,1.122,0,0,0,17.086,13.37Z" transform="translate(-0.441 -0.442)" fill="#1e212b"/>
    </g>
  </g>
</svg>
