<svg xmlns="http://www.w3.org/2000/svg" width="42" height="42" viewBox="0 0 42 42">
  <g id="Group_496" data-name="Group 496" transform="translate(-844 -222)">
    <circle id="Ellipse_581" data-name="Ellipse 581" cx="21" cy="21" r="21" transform="translate(844 222)" fill="#f5f8ff"/>
    <g id="Group_519" data-name="Group 519" transform="translate(1747.653 524.295) rotate(180)">
      <g id="like" transform="translate(875 272.626)">
        <g id="Group_408" data-name="Group 408" transform="translate(0 0)">
          <g id="Group_407" data-name="Group 407">
            <path id="Path_926" data-name="Path 926" d="M0,19.436a1.432,1.432,0,0,1,.407-1,1.6,1.6,0,0,1-.4-1.217,1.627,1.627,0,0,1,1.63-1.446H5.5A9.333,9.333,0,0,1,5,13.218a2.6,2.6,0,0,1,1.875-2.551,1.94,1.94,0,0,1,1.133.388.322.322,0,0,1,.118.249v2.163l1.8,3.979.074.039v-.122a.316.316,0,0,1,.313-.319h3.125A1.58,1.58,0,0,1,15,18.639v5.1a1.58,1.58,0,0,1-1.562,1.594H11.563a1.568,1.568,0,0,1-1.471-1.054,4.008,4.008,0,0,1-1.654.416H2.7a1.443,1.443,0,0,1-1.416-1.114,1.466,1.466,0,0,1,.113-.959,1.446,1.446,0,0,1-.626-1.913A1.432,1.432,0,0,1,0,19.436Zm1.318.787a.316.316,0,0,1,.261.216.324.324,0,0,1-.083.333.795.795,0,0,0,.446,1.364.316.316,0,0,1,.261.216.324.324,0,0,1-.083.333.8.8,0,0,0-.226.761.811.811,0,0,0,.806.614H8.438a2.923,2.923,0,0,0,1.654-.545.311.311,0,0,1,.341-.069.319.319,0,0,1,.193.295.948.948,0,0,0,.938.957h1.875a.948.948,0,0,0,.938-.957v-5.1a.948.948,0,0,0-.938-.957H10.625V18a.322.322,0,0,1-.149.272.314.314,0,0,1-.3.013l-.625-.319a.316.316,0,0,1-.144-.151L7.529,13.671a.33.33,0,0,1-.029-.134V11.478a1.3,1.3,0,0,0-.625-.173,2.1,2.1,0,0,0-1.25,1.913,10.1,10.1,0,0,0,.6,2.756.327.327,0,0,1-.034.295.313.313,0,0,1-.257.138h-4.3a.993.993,0,0,0-1.007.867.959.959,0,0,0,.445.9.323.323,0,0,1-.021.555.794.794,0,0,0,.265,1.492Z" transform="translate(0 -10.667)" fill="#7c8bfb"/>
          </g>
        </g>
        <g id="Group_410" data-name="Group 410" transform="translate(10 7.015)">
          <g id="Group_409" data-name="Group 409">
            <path id="Path_927" data-name="Path 927" d="M149.646,245.333a.316.316,0,0,1,.313.319v5.74a.313.313,0,1,1-.625,0v-5.74A.316.316,0,0,1,149.646,245.333Z" transform="translate(-149.333 -245.333)" fill="#7c8bfb"/>
          </g>
        </g>
      </g>
      <path id="Path_928" data-name="Path 928" d="M10133.822,20346.709c.964.91.453,3.387.453,3.387s.437,2.486-.4,3.338-2.96.277-2.96.277l-.582-.473-.31-1.389-.286.787-.586.477a30.59,30.59,0,0,1-3.946.125c-3.121-.012-3.643-.549-3.643-.549v-.617l-.095-.588-.484-.514-.266-.875.266-.7-.722-.672v-.973l.4-.336-.4-.963.073-.941,1.012-.457h3.061l1.178-.143-.276-1.389-.174-2.012,1.132-1.361.766-.154.291.387.223,2.248,1.157,2.973,1.034,1.441.286.852-.214-1.062.37-.48S10132.857,20345.8,10133.822,20346.709Z" transform="translate(-9244.732 -20066.916)" fill="#7c8bfb"/>
    </g>
  </g>
</svg>
