<svg xmlns="http://www.w3.org/2000/svg" width="13.975" height="13.975" viewBox="0 0 13.975 13.975">
  <g id="music" transform="translate(0 -0.005)">
    <g id="Group_727" data-name="Group 727" transform="translate(0 0.004)">
      <path id="Path_1041" data-name="Path 1041" d="M13.809.131a.507.507,0,0,0-.388-.124l-8.984,1a.5.5,0,0,0-.444.5V10.4a2.888,2.888,0,0,0-1.5-.41,2.291,2.291,0,0,0-2.5,2,2.291,2.291,0,0,0,2.5,2,2.29,2.29,0,0,0,2.5-2V4.446l7.986-.889V9.4a2.888,2.888,0,0,0-1.5-.408,2.291,2.291,0,0,0-2.5,2,2.291,2.291,0,0,0,2.5,2,2.29,2.29,0,0,0,2.5-2V.5A.5.5,0,0,0,13.809.131Z" transform="translate(0 -0.004)" fill="#fff"/>
    </g>
  </g>
</svg>
