<svg xmlns="http://www.w3.org/2000/svg" width="24" height="24" viewBox="0 0 24 24">
  <path id="Exclusion_2" data-name="Exclusion 2" d="M13.769,24H10.231a1,1,0,0,1-1-1V22a10.378,10.378,0,0,1-2.345-.972l-.639.639a1,1,0,0,1-1.415,0l-2.5-2.5a1,1,0,0,1,0-1.414l.64-.64A10.322,10.322,0,0,1,2,14.769H1a1,1,0,0,1-1-1V10.231a1,1,0,0,1,1-1H2a10.317,10.317,0,0,1,.972-2.345l-.639-.639a1,1,0,0,1,0-1.414l2.5-2.5a1,1,0,0,1,1.415,0l.639.639A10.319,10.319,0,0,1,9.23,2V1a1,1,0,0,1,1-1h3.538a1,1,0,0,1,1,1V2a10.322,10.322,0,0,1,2.346.973l.639-.639a1,1,0,0,1,1.415,0l2.5,2.5a1,1,0,0,1,0,1.414l-.639.639A10.378,10.378,0,0,1,22,9.23h1a1,1,0,0,1,1,1v3.538a1,1,0,0,1-1,1H22a10.322,10.322,0,0,1-.973,2.346l.64.64a1,1,0,0,1,0,1.414l-2.5,2.5a1,1,0,0,1-1.415,0l-.64-.64A10.319,10.319,0,0,1,14.769,22v1A1,1,0,0,1,13.769,24ZM12,8.308A3.692,3.692,0,1,0,15.692,12,3.7,3.7,0,0,0,12,8.308Z" fill="#fff"/>
</svg>
