<svg xmlns="http://www.w3.org/2000/svg" width="34" height="34" viewBox="0 0 34 34">
  <g id="Group_829" data-name="Group 829" transform="translate(-393 -660)">
    <g id="Group_820" data-name="Group 820" transform="translate(392.887 660)">
      <circle id="Ellipse_584" data-name="Ellipse 584" cx="17" cy="17" r="17" transform="translate(0.113)" fill="#eaf0ff"/>
    </g>
    <path id="Union_46" data-name="Union 46" d="M9,18l-.1,0a3.878,3.878,0,0,1-2.114-.811,12.274,12.274,0,0,1-2.22-2.055A21.918,21.918,0,0,1,2.548,12.4a19.78,19.78,0,0,1-1.49-2.847A13.385,13.385,0,0,1,.035,5.928,5.728,5.728,0,0,1,.129,4.061,4.053,4.053,0,0,1,.958,2.376a4.712,4.712,0,0,1,1.112-.961A7.276,7.276,0,0,1,3.716.664,17.3,17.3,0,0,1,8.923,0h.153a17.307,17.307,0,0,1,5.208.664,7.276,7.276,0,0,1,1.646.751,4.712,4.712,0,0,1,1.112.961,4.051,4.051,0,0,1,.829,1.686,5.728,5.728,0,0,1,.094,1.866,13.392,13.392,0,0,1-1.024,3.626,19.784,19.784,0,0,1-1.49,2.847,21.9,21.9,0,0,1-2.012,2.734,12.275,12.275,0,0,1-2.221,2.055A3.879,3.879,0,0,1,9.1,18Z" transform="translate(401 668)" fill="#2767fa"/>
    <g id="Group_826" data-name="Group 826" transform="translate(24498.334 -6174.667)">
      <circle id="Ellipse_758" data-name="Ellipse 758" cx="4" cy="4" r="4" transform="translate(-24085.334 6842.667)" fill="#2767fa"/>
      <path id="Subtraction_21" data-name="Subtraction 21" d="M5.5,11A5.5,5.5,0,1,1,11,5.5,5.506,5.506,0,0,1,5.5,11ZM3.525,5.077a.423.423,0,0,0,0,.846H5.077V7.474a.423.423,0,1,0,.846,0V5.923H7.474a.423.423,0,0,0,0-.846H5.923V3.525a.423.423,0,1,0-.846,0V5.077Z" transform="translate(-24087.334 6840.667)" fill="#eaf0ff"/>
    </g>
  </g>
</svg>
