<svg xmlns="http://www.w3.org/2000/svg" width="28" height="28" viewBox="0 0 28 28">
  <g id="Group_566" data-name="Group 566" transform="translate(-106 -626)">
    <g id="Group_562" data-name="Group 562" transform="translate(106 626)">
      <circle id="Ellipse_584" data-name="Ellipse 584" cx="14" cy="14" r="14" fill="#eaf0ff"/>
    </g>
    <g id="Path_966" data-name="Path 966" transform="translate(114.235 634.235)" fill="none" stroke-linejoin="round">
      <path d="M2.471,0H9.059a2.471,2.471,0,0,1,2.471,2.471V9.059a2.471,2.471,0,0,1-2.471,2.471H2.471A2.471,2.471,0,0,1,0,9.059V2.471A2.471,2.471,0,0,1,2.471,0Z" stroke="none"/>
      <path d="M 2.470585823059082 1.999996185302734 C 2.211106300354004 1.999996185302734 1.999996185302734 2.211106300354004 1.999996185302734 2.470585823059082 L 1.999996185302734 9.058826446533203 C 1.999996185302734 9.318305969238281 2.211106300354004 9.529416084289551 2.470585823059082 9.529416084289551 L 9.058826446533203 9.529416084289551 C 9.318305969238281 9.529416084289551 9.529416084289551 9.318305969238281 9.529416084289551 9.058826446533203 L 9.529416084289551 2.470585823059082 C 9.529416084289551 2.211106300354004 9.318305969238281 1.999996185302734 9.058826446533203 1.999996185302734 L 2.470585823059082 1.999996185302734 M 2.470585823059082 -3.814697265625e-06 L 9.058826446533203 -3.814697265625e-06 C 10.42329597473145 -3.814697265625e-06 11.52941608428955 1.10611629486084 11.52941608428955 2.470585823059082 L 11.52941608428955 9.058826446533203 C 11.52941608428955 10.42329597473145 10.42329597473145 11.52941608428955 9.058826446533203 11.52941608428955 L 2.470585823059082 11.52941608428955 C 1.10611629486084 11.52941608428955 -3.814697265625e-06 10.42329597473145 -3.814697265625e-06 9.058826446533203 L -3.814697265625e-06 2.470585823059082 C -3.814697265625e-06 1.10611629486084 1.10611629486084 -3.814697265625e-06 2.470585823059082 -3.814697265625e-06 Z" stroke="none" fill="#2767fa"/>
    </g>
  </g>
</svg>
