<svg xmlns="http://www.w3.org/2000/svg" width="196.92" height="33.795" viewBox="0 0 196.92 33.795">
  <path id="logo-white" d="M6.975.27A4.015,4.015,0,0,1,4.005-.855,4.015,4.015,0,0,1,2.88-3.825V-27.9a3.836,3.836,0,0,1,.99-2.835,3.836,3.836,0,0,1,2.835-.99h15.12a4.6,4.6,0,0,1,2.97.787,3.071,3.071,0,0,1,.945,2.5,2.91,2.91,0,0,1-.968,2.43,4.711,4.711,0,0,1-2.947.765h-10.8v5.85h9.9a4.518,4.518,0,0,1,2.948.81,3.046,3.046,0,0,1,.968,2.475,2.91,2.91,0,0,1-.968,2.43,4.711,4.711,0,0,1-2.948.765h-9.9v9.09a4.044,4.044,0,0,1-1.1,2.993A3.983,3.983,0,0,1,6.975.27ZM39.06.36a13.878,13.878,0,0,1-6.413-1.418,10.174,10.174,0,0,1-4.275-4.028,12.021,12.021,0,0,1-1.507-6.12,11.9,11.9,0,0,1,1.507-6.1,10.1,10.1,0,0,1,4.253-3.983,14.029,14.029,0,0,1,6.435-1.4,14.029,14.029,0,0,1,6.435,1.4A10.1,10.1,0,0,1,49.748-17.3a11.9,11.9,0,0,1,1.507,6.1,12.021,12.021,0,0,1-1.507,6.12,10.205,10.205,0,0,1-4.253,4.028A13.843,13.843,0,0,1,39.06.36Zm0-5.985q4.275,0,4.275-5.58t-4.275-5.58q-4.275,0-4.275,5.58T39.06-5.625ZM58.905.27a4.415,4.415,0,0,1-2.858-.922A3.339,3.339,0,0,1,54.9-3.42V-28.215a3.4,3.4,0,0,1,1.147-2.79,4.346,4.346,0,0,1,2.858-.945,4.346,4.346,0,0,1,2.857.945,3.4,3.4,0,0,1,1.148,2.79V-3.42A3.339,3.339,0,0,1,61.763-.652,4.415,4.415,0,0,1,58.905.27ZM71.55.27a4.415,4.415,0,0,1-2.857-.922A3.339,3.339,0,0,1,67.545-3.42V-18.9a3.339,3.339,0,0,1,1.148-2.767,4.415,4.415,0,0,1,2.857-.922,4.415,4.415,0,0,1,2.857.922A3.339,3.339,0,0,1,75.555-18.9V-3.42A3.339,3.339,0,0,1,74.408-.652,4.415,4.415,0,0,1,71.55.27Zm0-26.01A4.674,4.674,0,0,1,68.333-26.8,3.574,3.574,0,0,1,67.14-29.61a3.506,3.506,0,0,1,1.193-2.79,4.739,4.739,0,0,1,3.217-1.035A4.758,4.758,0,0,1,74.745-32.4a3.477,3.477,0,0,1,1.215,2.79A3.574,3.574,0,0,1,74.768-26.8,4.674,4.674,0,0,1,71.55-25.74ZM91.35.36a13.878,13.878,0,0,1-6.412-1.418,10.174,10.174,0,0,1-4.275-4.028,12.021,12.021,0,0,1-1.507-6.12,11.9,11.9,0,0,1,1.507-6.1,10.1,10.1,0,0,1,4.253-3.983,14.029,14.029,0,0,1,6.435-1.4,14.029,14.029,0,0,1,6.435,1.4,10.1,10.1,0,0,1,4.253,3.983,11.9,11.9,0,0,1,1.507,6.1,12.021,12.021,0,0,1-1.507,6.12,10.205,10.205,0,0,1-4.253,4.028A13.843,13.843,0,0,1,91.35.36Zm0-5.985q4.275,0,4.275-5.58t-4.275-5.58q-4.275,0-4.275,5.58T91.35-5.625Zm28.665.18q3.015.18,3.015,2.7A2.574,2.574,0,0,1,121.815-.4a5.844,5.844,0,0,1-3.465.63l-1.26-.09a9.283,9.283,0,0,1-6.143-2.453,8.161,8.161,0,0,1-2.092-5.962v-7.965H107.55q-3.6,0-3.6-2.97,0-2.925,3.6-2.925h1.305v-2.925a3.553,3.553,0,0,1,1.08-2.723A4.1,4.1,0,0,1,112.86-28.8a4.1,4.1,0,0,1,2.925,1.012,3.553,3.553,0,0,1,1.08,2.723v2.925h2.475q3.6,0,3.6,2.925,0,2.97-3.6,2.97h-2.475v8.64a2.1,2.1,0,0,0,.517,1.44,1.837,1.837,0,0,0,1.327.63ZM143.46-22.59a4.162,4.162,0,0,1,2.925.99,3.481,3.481,0,0,1,1.08,2.7V-3.33A3.326,3.326,0,0,1,146.34-.743,4.206,4.206,0,0,1,143.415.27a3.963,3.963,0,0,1-2.655-.878,3.069,3.069,0,0,1-1.08-2.363A7.041,7.041,0,0,1,137.048-.5,7.652,7.652,0,0,1,133.38.36Q129.1.36,127.035-2t-2.07-7.178V-18.9a3.481,3.481,0,0,1,1.08-2.7,4.162,4.162,0,0,1,2.925-.99,4.162,4.162,0,0,1,2.925.99,3.481,3.481,0,0,1,1.08,2.7V-9q0,3.24,2.79,3.24a3.384,3.384,0,0,0,2.655-1.17,4.447,4.447,0,0,0,1.035-3.06V-18.9a3.481,3.481,0,0,1,1.08-2.7A4.162,4.162,0,0,1,143.46-22.59Zm23.58-.09q3.96,0,5.9,2.363t1.935,7.177v9.72a3.481,3.481,0,0,1-1.08,2.7,4.162,4.162,0,0,1-2.925.99,4.162,4.162,0,0,1-2.925-.99,3.481,3.481,0,0,1-1.08-2.7v-9.36a4.727,4.727,0,0,0-.7-2.88,2.483,2.483,0,0,0-2.092-.9,3.7,3.7,0,0,0-2.857,1.147,4.37,4.37,0,0,0-1.057,3.083v8.91a3.481,3.481,0,0,1-1.08,2.7,4.162,4.162,0,0,1-2.925.99,4.162,4.162,0,0,1-2.925-.99,3.481,3.481,0,0,1-1.08-2.7V-18.99a3.326,3.326,0,0,1,1.125-2.587,4.206,4.206,0,0,1,2.925-1.012,3.83,3.83,0,0,1,2.723.945,3.228,3.228,0,0,1,1.012,2.475,7.674,7.674,0,0,1,3.015-2.61A9.215,9.215,0,0,1,167.04-22.68ZM197.37-7.11a2.068,2.068,0,0,1,1.688.81,3.268,3.268,0,0,1,.652,2.115,2.977,2.977,0,0,1-1.755,2.745,17.53,17.53,0,0,1-3.622,1.283,16.121,16.121,0,0,1-3.848.518,14.029,14.029,0,0,1-6.435-1.395,9.921,9.921,0,0,1-4.23-4,12.166,12.166,0,0,1-1.485-6.12,12.375,12.375,0,0,1,1.418-5.962,10.205,10.205,0,0,1,3.96-4.1,11.3,11.3,0,0,1,5.738-1.462,10.7,10.7,0,0,1,5.445,1.35,9.2,9.2,0,0,1,3.622,3.825,12.453,12.453,0,0,1,1.283,5.8,2.417,2.417,0,0,1-.473,1.6,1.691,1.691,0,0,1-1.372.563h-11.88a4.933,4.933,0,0,0,1.4,3.1,4.725,4.725,0,0,0,3.195.945,8.158,8.158,0,0,0,2.07-.247,20.292,20.292,0,0,0,2.115-.7q.675-.27,1.327-.472A4.054,4.054,0,0,1,197.37-7.11Zm-7.695-10.17a3.283,3.283,0,0,0-2.52,1.013,4.86,4.86,0,0,0-1.125,2.948H193.1Q192.825-17.28,189.675-17.28Z" transform="translate(-2.88 33.435)" fill="#1e212b"/>
</svg>
