<svg xmlns="http://www.w3.org/2000/svg" width="17.285" height="10" viewBox="0 0 17.285 10">
  <g id="Group_736" data-name="Group 736" transform="translate(17639.113 -12437)">
    <g id="binoculars" transform="translate(-17639.113 12334.25)">
      <g id="XMLID_1736_" transform="translate(0 102.75)">
        <path id="XMLID_1738_" d="M16.111,106.118c-.1-.092-.2-.181-.3-.266h0l-1.453-1.234a3.813,3.813,0,0,0-1.95-.7l.078.078-.883-.886h-.007a1.382,1.382,0,0,0-2.247.6,1.265,1.265,0,0,0-.606-.195c-.035,0-.074,0-.11,0a1.287,1.287,0,0,0-.684.2,1.383,1.383,0,0,0-2.247-.592H5.689L4.807,104l.078-.078a3.834,3.834,0,0,0-1.95.7l-1.453,1.234h0a3.089,3.089,0,0,0-.3.266,3.856,3.856,0,1,0,6.5,3.247,1.936,1.936,0,0,0,1.921,0,3.856,3.856,0,0,0,7.682-.479A3.823,3.823,0,0,0,16.111,106.118ZM3.857,111.523a2.63,2.63,0,1,1,2.63-2.63A2.629,2.629,0,0,1,3.857,111.523Zm4.789-2.992a.854.854,0,1,1,.854-.854A.855.855,0,0,1,8.646,108.532Zm4.789,2.992a2.63,2.63,0,1,1,2.63-2.63A2.629,2.629,0,0,1,13.435,111.523Z" transform="translate(0 -102.75)" fill="#fefefe"/>
      </g>
    </g>
    <circle id="Ellipse_749" data-name="Ellipse 749" cx="1.5" cy="1.5" r="1.5" transform="translate(-17632 12440)" fill="#fff"/>
  </g>
</svg>
