<svg xmlns="http://www.w3.org/2000/svg" width="28" height="28" viewBox="0 0 28 28">
  <g id="Group_638" data-name="Group 638" transform="translate(-1057 -286)">
    <g id="Group_579" data-name="Group 579" transform="translate(1057 286)">
      <path id="Path_974" data-name="Path 974" d="M14,0A14,14,0,1,1,0,14,14,14,0,0,1,14,0Z" fill="#3e424e"/>
    </g>
    <g id="logout_1_" data-name="logout (1)" transform="translate(1066.375 294.373)">
      <path id="Path_986" data-name="Path 986" d="M7.854,6.811a.523.523,0,0,0-.524.524V9.429a.524.524,0,0,1-.524.524H5.236V2.1a1.055,1.055,0,0,0-.713-1l-.155-.052H6.807a.524.524,0,0,1,.524.524V3.145a.524.524,0,0,0,1.047,0V1.575A1.573,1.573,0,0,0,6.807,0H1.178a.411.411,0,0,0-.056.012C1.1.013,1.073,0,1.047,0A1.048,1.048,0,0,0,0,1.051v9.425a1.055,1.055,0,0,0,.713,1l3.151,1.05a1.084,1.084,0,0,0,.325.049,1.048,1.048,0,0,0,1.047-1.047V11H6.807A1.573,1.573,0,0,0,8.377,9.429V7.334A.523.523,0,0,0,7.854,6.811Zm0,0" fill="#fefefe"/>
      <path id="Path_987" data-name="Path 987" d="M282.938,108.913l-2.094-2.094a.523.523,0,0,0-.894.37v1.571h-2.094a.524.524,0,1,0,0,1.047h2.094v1.571a.523.523,0,0,0,.894.37l2.094-2.094A.523.523,0,0,0,282.938,108.913Zm0,0" transform="translate(-270.525 -104.044)" fill="#fefefe"/>
    </g>
  </g>
</svg>
