<svg xmlns="http://www.w3.org/2000/svg" width="21" height="18" viewBox="0 0 21 18">
  <g id="Group_734" data-name="Group 734" transform="translate(17626 -12501)">
    <path id="Subtraction_2" data-name="Subtraction 2" d="M4.5,12A4.5,4.5,0,1,1,7.455,4.106a6.512,6.512,0,0,0,.674,6.055A4.52,4.52,0,0,1,4.5,12Z" transform="translate(-17626 12499)" fill="#3e424e"/>
    <path id="Union_41" data-name="Union 41" d="M8.031,8H.842A.842.842,0,0,1,0,7.158,7.158,7.158,0,0,1,7.158,0H8.842A7.158,7.158,0,0,1,16,7.158.842.842,0,0,1,15.158,8Z" transform="translate(-17621 12511)" fill="#3e424e"/>
    <circle id="Ellipse_746" data-name="Ellipse 746" cx="4.5" cy="4.5" r="4.5" transform="translate(-17617 12501)" fill="#3e424e"/>
  </g>
</svg>
