<svg xmlns="http://www.w3.org/2000/svg" width="32" height="32" viewBox="0 0 32 32">
  <g id="Group_621" data-name="Group 621" transform="translate(-1088 -24)">
    <g id="Group_616" data-name="Group 616" transform="translate(1088 24)">
      <g id="Group_513" data-name="Group 513" transform="translate(0 0)">
        <circle id="Ellipse_582" data-name="Ellipse 582" cx="16" cy="16" r="16" fill="#3e424e"/>
      </g>
    </g>
    <path id="Exclusion_3" data-name="Exclusion 3" d="M8.846,16H7.154a1,1,0,0,1-1-1v-.331a6.887,6.887,0,0,1-1.564-.648l-.191.191a1,1,0,0,1-1.414,0l-1.2-1.2a1,1,0,0,1,0-1.414l.191-.191a6.886,6.886,0,0,1-.648-1.564H1a1,1,0,0,1-1-1V7.154a1,1,0,0,1,1-1h.331a6.873,6.873,0,0,1,.648-1.563L1.788,4.4a1,1,0,0,1,0-1.415l1.2-1.2a1,1,0,0,1,1.414,0l.191.191a6.85,6.85,0,0,1,1.564-.649V1a1,1,0,0,1,1-1H8.846a1,1,0,0,1,1,1v.331a6.849,6.849,0,0,1,1.564.649l.191-.191a1,1,0,0,1,1.414,0l1.2,1.2a1,1,0,0,1,0,1.415l-.191.191a6.873,6.873,0,0,1,.648,1.563H15a1,1,0,0,1,1,1V8.846a1,1,0,0,1-1,1h-.331a6.887,6.887,0,0,1-.648,1.564l.191.191a1,1,0,0,1,0,1.414l-1.2,1.2a1,1,0,0,1-1.414,0l-.191-.191a6.886,6.886,0,0,1-1.564.648V15A1,1,0,0,1,8.846,16ZM8,5.539A2.462,2.462,0,1,0,10.462,8,2.464,2.464,0,0,0,8,5.539Z" transform="translate(1096 32)" fill="#fff"/>
  </g>
</svg>
