<svg xmlns="http://www.w3.org/2000/svg" width="10.192" height="9.767" viewBox="0 0 10.192 9.767">
  <g id="Group_523" data-name="Group 523" transform="translate(-875 -272.626)">
    <g id="like" transform="translate(875 272.626)">
      <g id="Group_408" data-name="Group 408" transform="translate(0 0)">
        <g id="Group_407" data-name="Group 407">
          <path id="Path_926" data-name="Path 926" d="M10.192,16.506a.944.944,0,0,0-.276-.668,1.054,1.054,0,0,0,.272-.811,1.1,1.1,0,0,0-1.108-.963H6.457a6.106,6.106,0,0,0,.338-1.7,1.736,1.736,0,0,0-1.274-1.7,1.334,1.334,0,0,0-.769.259.212.212,0,0,0-.08.166v1.44L3.448,15.181l-.051.026v-.081a.212.212,0,0,0-.212-.212H1.062A1.063,1.063,0,0,0,0,15.975v3.4a1.063,1.063,0,0,0,1.062,1.062H2.336a1.064,1.064,0,0,0,1-.7,2.768,2.768,0,0,0,1.124.277h3.9a.977.977,0,0,0,.962-.741.959.959,0,0,0-.076-.638.952.952,0,0,0,.425-1.274A.952.952,0,0,0,10.192,16.506Zm-.9.524a.212.212,0,0,0-.121.366.526.526,0,0,1-.3.908.212.212,0,0,0-.121.366.525.525,0,0,1,.154.507.549.549,0,0,1-.547.409h-3.9a2.013,2.013,0,0,1-1.124-.363.213.213,0,0,0-.363.15.638.638,0,0,1-.637.637H1.062a.638.638,0,0,1-.637-.637v-3.4a.638.638,0,0,1,.637-.637H2.973v.212a.213.213,0,0,0,.1.181.217.217,0,0,0,.206.009l.425-.212a.212.212,0,0,0,.1-.1l1.274-2.76a.216.216,0,0,0,.02-.089V11.207a.9.9,0,0,1,.425-.115,1.4,1.4,0,0,1,.849,1.274A6.612,6.612,0,0,1,5.959,14.2a.212.212,0,0,0,.2.288H9.08a.67.67,0,0,1,.685.577.634.634,0,0,1-.3.6.213.213,0,0,0,.014.37.526.526,0,0,1-.18.993Z" transform="translate(0 -10.667)" fill="#2767fa"/>
        </g>
      </g>
      <g id="Group_410" data-name="Group 410" transform="translate(2.973 4.671)">
        <g id="Group_409" data-name="Group 409">
          <path id="Path_927" data-name="Path 927" d="M149.545,245.333a.212.212,0,0,0-.212.212v3.822a.212.212,0,1,0,.425,0v-3.822A.212.212,0,0,0,149.545,245.333Z" transform="translate(-149.333 -245.333)" fill="#2767fa"/>
        </g>
      </g>
    </g>
    <path id="Path_928" data-name="Path 928" d="M10120.661,20344.465c-.654.605-.307,2.254-.307,2.254s-.3,1.656.272,2.223,2.011.186,2.011.186l.4-.314.211-.926.193.525.4.316a21.048,21.048,0,0,0,2.682.084c2.12-.008,2.475-.365,2.475-.365v-.412l.064-.391.329-.342.18-.584-.18-.467.49-.447v-.648l-.27-.225.27-.641-.05-.627-.687-.3h-2.08l-.8-.094.188-.926.118-1.338-.77-.908-.521-.1-.2.258-.151,1.5-.786,1.98-.7.959-.193.566.144-.707-.251-.32S10121.317,20343.857,10120.661,20344.465Z" transform="translate(-9245.044 -20067.066)" fill="#2767fa"/>
  </g>
</svg>
