<svg xmlns="http://www.w3.org/2000/svg" width="18" height="18" viewBox="0 0 18 18">
  <g id="Group_636" data-name="Group 636" transform="translate(-820 -271)">
    <g id="Group_634" data-name="Group 634" transform="translate(-62.295 136.705)">
      <g id="Group_511" data-name="Group 511" transform="translate(882.57 134.57)">
        <circle id="Ellipse_582" data-name="Ellipse 582" cx="9" cy="9" r="9" transform="translate(-0.275 -0.275)" fill="#3e424e"/>
      </g>
    </g>
    <path id="Path_990" data-name="Path 990" d="M1.974.084A1.374,1.374,0,0,1,1.085-.2a1.039,1.039,0,0,1-.357-.861V-5.88a1.039,1.039,0,0,1,.357-.861,1.374,1.374,0,0,1,.889-.287,1.374,1.374,0,0,1,.889.287,1.039,1.039,0,0,1,.357.861v4.816A1.039,1.039,0,0,1,2.863-.2,1.374,1.374,0,0,1,1.974.084Zm0-8.092a1.454,1.454,0,0,1-1-.329A1.112,1.112,0,0,1,.6-9.212a1.091,1.091,0,0,1,.371-.868,1.474,1.474,0,0,1,1-.322,1.48,1.48,0,0,1,.994.322,1.082,1.082,0,0,1,.378.868,1.112,1.112,0,0,1-.371.875A1.454,1.454,0,0,1,1.974-8.008Z" transform="translate(827 285)" fill="#fff"/>
  </g>
</svg>
