<svg xmlns="http://www.w3.org/2000/svg" width="46" height="46" viewBox="0 0 46 46">
  <g id="Group_581" data-name="Group 581" transform="translate(-1146 -20)">
    <g id="Group_579" data-name="Group 579">
      <path id="Path_974" data-name="Path 974" d="M23,0A23,23,0,1,1,0,23,23,23,0,0,1,23,0Z" transform="translate(1146 20)" fill="#e6ffef"/>
      <path id="Union_35" data-name="Union 35" d="M11.147,12A1.277,1.277,0,0,1,11,11.991a1.277,1.277,0,0,1-.147.009H1.264A1.263,1.263,0,0,1,0,10.737,10.737,10.737,0,0,1,10.737,0h.116A1.277,1.277,0,0,1,11,.009,1.277,1.277,0,0,1,11.147,0h.115A10.737,10.737,0,0,1,22,10.737,1.263,1.263,0,0,1,20.737,12Z" transform="translate(1158 43)" fill="#20bf55"/>
      <circle id="Ellipse_700" data-name="Ellipse 700" cx="9" cy="9" r="9" transform="translate(1160 29)" fill="#e6ffef"/>
      <circle id="Ellipse_698" data-name="Ellipse 698" cx="7" cy="7" r="7" transform="translate(1162 31)" fill="#20bf55"/>
    </g>
  </g>
</svg>
