<svg xmlns="http://www.w3.org/2000/svg" xmlns:xlink="http://www.w3.org/1999/xlink" width="810.5" height="508.5" viewBox="0 0 810.5 508.5">
  <defs>
    <filter id="Rectangle_879" x="290.5" y="56.5" width="288" height="190" filterUnits="userSpaceOnUse">
      <feOffset input="SourceAlpha"/>
      <feGaussianBlur stdDeviation="12.5" result="blur"/>
      <feFlood flood-opacity="0.18"/>
      <feComposite operator="in" in2="blur"/>
      <feComposite in="SourceGraphic"/>
    </filter>
    <filter id="Rectangle_879-2" x="290.5" y="187.5" width="288" height="190" filterUnits="userSpaceOnUse">
      <feOffset input="SourceAlpha"/>
      <feGaussianBlur stdDeviation="12.5" result="blur-2"/>
      <feFlood flood-opacity="0.18"/>
      <feComposite operator="in" in2="blur-2"/>
      <feComposite in="SourceGraphic"/>
    </filter>
    <filter id="Rectangle_879-3" x="290.5" y="318.5" width="288" height="190" filterUnits="userSpaceOnUse">
      <feOffset input="SourceAlpha"/>
      <feGaussianBlur stdDeviation="12.5" result="blur-3"/>
      <feFlood flood-opacity="0.18"/>
      <feComposite operator="in" in2="blur-3"/>
      <feComposite in="SourceGraphic"/>
    </filter>
    <filter id="Rectangle_868" x="0" y="49" width="351" height="143" filterUnits="userSpaceOnUse">
      <feOffset input="SourceAlpha"/>
      <feGaussianBlur stdDeviation="15" result="blur-4"/>
      <feFlood flood-opacity="0.18"/>
      <feComposite operator="in" in2="blur-4"/>
      <feComposite in="SourceGraphic"/>
    </filter>
    <filter id="Rectangle_868-2" x="0" y="118" width="351" height="143" filterUnits="userSpaceOnUse">
      <feOffset input="SourceAlpha"/>
      <feGaussianBlur stdDeviation="15" result="blur-5"/>
      <feFlood flood-opacity="0.18"/>
      <feComposite operator="in" in2="blur-5"/>
      <feComposite in="SourceGraphic"/>
    </filter>
    <filter id="Rectangle_868-3" x="0" y="187" width="351" height="143" filterUnits="userSpaceOnUse">
      <feOffset input="SourceAlpha"/>
      <feGaussianBlur stdDeviation="15" result="blur-6"/>
      <feFlood flood-opacity="0.18"/>
      <feComposite operator="in" in2="blur-6"/>
      <feComposite in="SourceGraphic"/>
    </filter>
    <filter id="Rectangle_868-4" x="0" y="256" width="351" height="143" filterUnits="userSpaceOnUse">
      <feOffset input="SourceAlpha"/>
      <feGaussianBlur stdDeviation="15" result="blur-7"/>
      <feFlood flood-opacity="0.18"/>
      <feComposite operator="in" in2="blur-7"/>
      <feComposite in="SourceGraphic"/>
    </filter>
    <filter id="Rectangle_868-5" x="0" y="325" width="351" height="143" filterUnits="userSpaceOnUse">
      <feOffset input="SourceAlpha"/>
      <feGaussianBlur stdDeviation="15" result="blur-8"/>
      <feFlood flood-opacity="0.18"/>
      <feComposite operator="in" in2="blur-8"/>
      <feComposite in="SourceGraphic"/>
    </filter>
    <filter id="Rectangle_884" x="523.5" y="56.5" width="287" height="229" filterUnits="userSpaceOnUse">
      <feOffset input="SourceAlpha"/>
      <feGaussianBlur stdDeviation="12.5" result="blur-9"/>
      <feFlood flood-opacity="0.18"/>
      <feComposite operator="in" in2="blur-9"/>
      <feComposite in="SourceGraphic"/>
    </filter>
    <filter id="Rectangle_884-2" x="523.5" y="226.5" width="287" height="229" filterUnits="userSpaceOnUse">
      <feOffset input="SourceAlpha"/>
      <feGaussianBlur stdDeviation="12.5" result="blur-10"/>
      <feFlood flood-opacity="0.18"/>
      <feComposite operator="in" in2="blur-10"/>
      <feComposite in="SourceGraphic"/>
    </filter>
  </defs>
  <g id="Group_677" data-name="Group 677" transform="translate(23946.973 -11220.372)">
    <path id="Rectangle_856" data-name="Rectangle 856" d="M0,0H792a0,0,0,0,1,0,0V317a33,33,0,0,1-33,33H33A33,33,0,0,1,0,317V0A0,0,0,0,1,0,0Z" transform="translate(-23933.973 11281.372)" fill="#fff"/>
    <path id="Rectangle_857" data-name="Rectangle 857" d="M31,0H761a31,31,0,0,1,31,31V61a0,0,0,0,1,0,0H0a0,0,0,0,1,0,0V31A31,31,0,0,1,31,0Z" transform="translate(-23933.973 11220.372)" fill="#3e424e"/>
    <g id="Group_663" data-name="Group 663" transform="translate(-23618.586 11314.337)">
      <g transform="matrix(1, 0, 0, 1, -328.39, -93.96)" filter="url(#Rectangle_879)">
        <rect id="Rectangle_879-4" data-name="Rectangle 879" width="213" height="115" rx="22" transform="translate(328 94)" fill="#fff"/>
      </g>
      <g id="Group_659" data-name="Group 659" transform="translate(150.385 16.286)" opacity="0.548">
        <circle id="Ellipse_616" data-name="Ellipse 616" cx="10" cy="10" r="10" transform="translate(0.227 -0.25)" fill="#2767fa"/>
      </g>
      <g id="Group_660" data-name="Group 660" transform="translate(177.255 16.286)" opacity="0.548">
        <circle id="Ellipse_642" data-name="Ellipse 642" cx="10" cy="10" r="10" transform="translate(0.358 -0.25)" fill="#f8333c"/>
      </g>
      <rect id="Rectangle_880" data-name="Rectangle 880" width="51" height="5" rx="2.5" transform="translate(14.613 24.035)" fill="#25252c" opacity="0.55"/>
      <rect id="Rectangle_881" data-name="Rectangle 881" width="179" height="5" rx="2.5" transform="translate(14.613 55.035)" fill="#25252c" opacity="0.55"/>
      <rect id="Rectangle_937" data-name="Rectangle 937" width="179" height="5" rx="2.5" transform="translate(14.613 69.035)" fill="#25252c" opacity="0.55"/>
      <rect id="Rectangle_938" data-name="Rectangle 938" width="98" height="5" rx="2.5" transform="translate(14.613 83.035)" fill="#25252c" opacity="0.55"/>
    </g>
    <g id="Group_716" data-name="Group 716" transform="translate(-23618.586 11445.337)">
      <g transform="matrix(1, 0, 0, 1, -328.39, -224.96)" filter="url(#Rectangle_879-2)">
        <rect id="Rectangle_879-5" data-name="Rectangle 879" width="213" height="115" rx="22" transform="translate(328 225)" fill="#fff"/>
      </g>
      <g id="Group_659-2" data-name="Group 659" transform="translate(150.385 16.286)" opacity="0.548">
        <circle id="Ellipse_616-2" data-name="Ellipse 616" cx="10" cy="10" r="10" transform="translate(0.227 -0.25)" fill="#2767fa"/>
      </g>
      <g id="Group_660-2" data-name="Group 660" transform="translate(177.255 16.286)" opacity="0.548">
        <circle id="Ellipse_642-2" data-name="Ellipse 642" cx="10" cy="10" r="10" transform="translate(0.358 -0.25)" fill="#f8333c"/>
      </g>
      <rect id="Rectangle_880-2" data-name="Rectangle 880" width="51" height="5" rx="2.5" transform="translate(14.613 24.035)" fill="#25252c" opacity="0.55"/>
      <rect id="Rectangle_881-2" data-name="Rectangle 881" width="179" height="5" rx="2.5" transform="translate(14.613 55.035)" fill="#25252c" opacity="0.55"/>
      <rect id="Rectangle_937-2" data-name="Rectangle 937" width="179" height="5" rx="2.5" transform="translate(14.613 69.035)" fill="#25252c" opacity="0.55"/>
      <rect id="Rectangle_938-2" data-name="Rectangle 938" width="98" height="5" rx="2.5" transform="translate(14.613 83.035)" fill="#25252c" opacity="0.55"/>
    </g>
    <g id="Group_717" data-name="Group 717" transform="translate(-23618.586 11576.337)">
      <g transform="matrix(1, 0, 0, 1, -328.39, -355.96)" filter="url(#Rectangle_879-3)">
        <rect id="Rectangle_879-6" data-name="Rectangle 879" width="213" height="115" rx="22" transform="translate(328 356)" fill="#fff"/>
      </g>
      <g id="Group_659-3" data-name="Group 659" transform="translate(150.385 16.286)" opacity="0.548">
        <circle id="Ellipse_616-3" data-name="Ellipse 616" cx="10" cy="10" r="10" transform="translate(0.227 -0.25)" fill="#2767fa"/>
      </g>
      <g id="Group_660-3" data-name="Group 660" transform="translate(177.255 16.286)" opacity="0.548">
        <circle id="Ellipse_642-3" data-name="Ellipse 642" cx="10" cy="10" r="10" transform="translate(0.358 -0.25)" fill="#f8333c"/>
      </g>
      <rect id="Rectangle_880-3" data-name="Rectangle 880" width="51" height="5" rx="2.5" transform="translate(14.613 24.035)" fill="#25252c" opacity="0.55"/>
      <rect id="Rectangle_881-3" data-name="Rectangle 881" width="179" height="5" rx="2.5" transform="translate(14.613 55.035)" fill="#25252c" opacity="0.55"/>
      <rect id="Rectangle_937-3" data-name="Rectangle 937" width="179" height="5" rx="2.5" transform="translate(14.613 69.035)" fill="#25252c" opacity="0.55"/>
      <rect id="Rectangle_938-3" data-name="Rectangle 938" width="98" height="5" rx="2.5" transform="translate(14.613 83.035)" fill="#25252c" opacity="0.55"/>
    </g>
    <g id="Group_665" data-name="Group 665" transform="translate(-23901.957 11314.337)">
      <g transform="matrix(1, 0, 0, 1, -45.02, -93.96)" filter="url(#Rectangle_868)">
        <rect id="Rectangle_868-6" data-name="Rectangle 868" width="261" height="53" rx="22" transform="translate(45 94)" fill="#fff"/>
      </g>
      <g id="Group_647" data-name="Group 647" transform="translate(198.499 16.286)" opacity="0.548">
        <circle id="Ellipse_616-4" data-name="Ellipse 616" cx="10" cy="10" r="10" transform="translate(0.485 -0.25)" fill="#2767fa"/>
      </g>
      <g id="Group_649" data-name="Group 649" transform="translate(226.37 16.286)" opacity="0.548">
        <circle id="Ellipse_642-4" data-name="Ellipse 642" cx="10" cy="10" r="10" transform="translate(-0.387 -0.25)" fill="#f8333c"/>
      </g>
      <rect id="Rectangle_871" data-name="Rectangle 871" width="52" height="5" rx="2.5" transform="translate(14.985 19.035)" fill="#25252c" opacity="0.55"/>
      <path id="Path_998" data-name="Path 998" d="M3.551,0H30.379C32.34,0,33.93,1.168,33.93,2.61s-1.59,2.61-3.551,2.61H3.551C1.59,5.22,0,4.051,0,2.61S1.59,0,3.551,0Z" transform="translate(14.846 28.834)" fill="#92b2fc"/>
    </g>
    <g id="Group_665-2" data-name="Group 665" transform="translate(-23901.957 11383.337)">
      <g transform="matrix(1, 0, 0, 1, -45.02, -162.96)" filter="url(#Rectangle_868-2)">
        <rect id="Rectangle_868-7" data-name="Rectangle 868" width="261" height="53" rx="22" transform="translate(45 163)" fill="#fff"/>
      </g>
      <g id="Group_647-2" data-name="Group 647" transform="translate(198.499 16.286)" opacity="0.548">
        <circle id="Ellipse_616-5" data-name="Ellipse 616" cx="10" cy="10" r="10" transform="translate(0.485 -0.25)" fill="#2767fa"/>
      </g>
      <g id="Group_649-2" data-name="Group 649" transform="translate(226.37 16.286)" opacity="0.548">
        <circle id="Ellipse_642-5" data-name="Ellipse 642" cx="10" cy="10" r="10" transform="translate(-0.387 -0.25)" fill="#f8333c"/>
      </g>
      <rect id="Rectangle_871-2" data-name="Rectangle 871" width="52" height="5" rx="2.5" transform="translate(14.985 19.035)" fill="#25252c" opacity="0.55"/>
      <path id="Path_998-2" data-name="Path 998" d="M3.551,0H30.379C32.34,0,33.93,1.168,33.93,2.61s-1.59,2.61-3.551,2.61H3.551C1.59,5.22,0,4.051,0,2.61S1.59,0,3.551,0Z" transform="translate(14.846 28.834)" fill="#92b2fc"/>
    </g>
    <g id="Group_665-3" data-name="Group 665" transform="translate(-23901.957 11452.337)">
      <g transform="matrix(1, 0, 0, 1, -45.02, -231.96)" filter="url(#Rectangle_868-3)">
        <rect id="Rectangle_868-8" data-name="Rectangle 868" width="261" height="53" rx="22" transform="translate(45 232)" fill="#fff"/>
      </g>
      <g id="Group_647-3" data-name="Group 647" transform="translate(198.499 16.286)" opacity="0.548">
        <circle id="Ellipse_616-6" data-name="Ellipse 616" cx="10" cy="10" r="10" transform="translate(0.485 -0.25)" fill="#2767fa"/>
      </g>
      <g id="Group_649-3" data-name="Group 649" transform="translate(226.37 16.286)" opacity="0.548">
        <circle id="Ellipse_642-6" data-name="Ellipse 642" cx="10" cy="10" r="10" transform="translate(-0.387 -0.25)" fill="#f8333c"/>
      </g>
      <rect id="Rectangle_871-3" data-name="Rectangle 871" width="52" height="5" rx="2.5" transform="translate(14.985 19.035)" fill="#25252c" opacity="0.55"/>
      <path id="Path_998-3" data-name="Path 998" d="M3.551,0H30.379C32.34,0,33.93,1.168,33.93,2.61s-1.59,2.61-3.551,2.61H3.551C1.59,5.22,0,4.051,0,2.61S1.59,0,3.551,0Z" transform="translate(14.846 28.834)" fill="#92b2fc"/>
    </g>
    <g id="Group_665-4" data-name="Group 665" transform="translate(-23901.957 11521.337)">
      <g transform="matrix(1, 0, 0, 1, -45.02, -300.96)" filter="url(#Rectangle_868-4)">
        <rect id="Rectangle_868-9" data-name="Rectangle 868" width="261" height="53" rx="22" transform="translate(45 301)" fill="#fff"/>
      </g>
      <g id="Group_647-4" data-name="Group 647" transform="translate(198.499 16.286)" opacity="0.548">
        <circle id="Ellipse_616-7" data-name="Ellipse 616" cx="10" cy="10" r="10" transform="translate(0.485 -0.25)" fill="#2767fa"/>
      </g>
      <g id="Group_649-4" data-name="Group 649" transform="translate(226.37 16.286)" opacity="0.548">
        <circle id="Ellipse_642-7" data-name="Ellipse 642" cx="10" cy="10" r="10" transform="translate(-0.387 -0.25)" fill="#f8333c"/>
      </g>
      <rect id="Rectangle_871-4" data-name="Rectangle 871" width="52" height="5" rx="2.5" transform="translate(14.985 19.035)" fill="#25252c" opacity="0.55"/>
      <path id="Path_998-4" data-name="Path 998" d="M3.551,0H30.379C32.34,0,33.93,1.168,33.93,2.61s-1.59,2.61-3.551,2.61H3.551C1.59,5.22,0,4.051,0,2.61S1.59,0,3.551,0Z" transform="translate(14.846 28.834)" fill="#92b2fc"/>
    </g>
    <g id="Group_665-5" data-name="Group 665" transform="translate(-23901.957 11590.337)">
      <g transform="matrix(1, 0, 0, 1, -45.02, -369.96)" filter="url(#Rectangle_868-5)">
        <rect id="Rectangle_868-10" data-name="Rectangle 868" width="261" height="53" rx="22" transform="translate(45 370)" fill="#fff"/>
      </g>
      <g id="Group_647-5" data-name="Group 647" transform="translate(198.499 16.286)" opacity="0.548">
        <circle id="Ellipse_616-8" data-name="Ellipse 616" cx="10" cy="10" r="10" transform="translate(0.485 -0.25)" fill="#2767fa"/>
      </g>
      <g id="Group_649-5" data-name="Group 649" transform="translate(226.37 16.286)" opacity="0.548">
        <circle id="Ellipse_642-8" data-name="Ellipse 642" cx="10" cy="10" r="10" transform="translate(-0.387 -0.25)" fill="#f8333c"/>
      </g>
      <rect id="Rectangle_871-5" data-name="Rectangle 871" width="52" height="5" rx="2.5" transform="translate(14.985 19.035)" fill="#25252c" opacity="0.55"/>
      <path id="Path_998-5" data-name="Path 998" d="M3.551,0H30.379C32.34,0,33.93,1.168,33.93,2.61s-1.59,2.61-3.551,2.61H3.551C1.59,5.22,0,4.051,0,2.61S1.59,0,3.551,0Z" transform="translate(14.846 28.834)" fill="#92b2fc"/>
    </g>
    <g id="Group_669" data-name="Group 669" transform="translate(-23385.701 11314.337)">
      <g transform="matrix(1, 0, 0, 1, -561.27, -93.96)" filter="url(#Rectangle_884)">
        <rect id="Rectangle_884-3" data-name="Rectangle 884" width="212" height="154" rx="22" transform="translate(561 94)" fill="#fff"/>
      </g>
      <g id="Group_661" data-name="Group 661" transform="translate(150.2 16.286)" opacity="0.548">
        <circle id="Ellipse_616-9" data-name="Ellipse 616" cx="10" cy="10" r="10" transform="translate(-0.472 -0.25)" fill="#2767fa"/>
      </g>
      <g id="Group_662" data-name="Group 662" transform="translate(176.37 16.286)" opacity="0.548">
        <circle id="Ellipse_642-9" data-name="Ellipse 642" cx="10" cy="10" r="10" transform="translate(0.358 -0.25)" fill="#f8333c"/>
      </g>
      <rect id="Rectangle_885" data-name="Rectangle 885" width="52" height="5" rx="2.5" transform="translate(12.729 24.035)" fill="#25252c" opacity="0.55"/>
      <rect id="Rectangle_886" data-name="Rectangle 886" width="182" height="3" rx="1.5" transform="translate(12.729 55.035)" fill="#25252c" opacity="0.55"/>
      <rect id="Rectangle_886-2" data-name="Rectangle 886" width="182" height="3" rx="1.5" transform="translate(12.729 68.035)" fill="#25252c" opacity="0.55"/>
      <rect id="Rectangle_886-3" data-name="Rectangle 886" width="182" height="3" rx="1.5" transform="translate(12.729 81.035)" fill="#25252c" opacity="0.55"/>
      <rect id="Rectangle_886-4" data-name="Rectangle 886" width="182" height="3" rx="1.5" transform="translate(12.729 94.035)" fill="#25252c" opacity="0.55"/>
      <rect id="Rectangle_886-5" data-name="Rectangle 886" width="182" height="3" rx="1.5" transform="translate(12.729 107.035)" fill="#25252c" opacity="0.55"/>
      <rect id="Rectangle_886-6" data-name="Rectangle 886" width="182" height="3" rx="1.5" transform="translate(12.729 120.035)" fill="#25252c" opacity="0.55"/>
      <path id="Path_1032" data-name="Path 1032" d="M3.5,0A3.5,3.5,0,1,1,0,3.5,3.5,3.5,0,0,1,3.5,0Z" transform="translate(21.729 53.035)" fill="#87878b"/>
      <path id="Path_1032-2" data-name="Path 1032" d="M3.5,0A3.5,3.5,0,1,1,0,3.5,3.5,3.5,0,0,1,3.5,0Z" transform="translate(41.729 53.035)" fill="#87878b"/>
      <path id="Path_1032-3" data-name="Path 1032" d="M3.5,0A3.5,3.5,0,1,1,0,3.5,3.5,3.5,0,0,1,3.5,0Z" transform="translate(51.729 53.035)" fill="#87878b"/>
      <path id="Path_1032-4" data-name="Path 1032" d="M3.5,0A3.5,3.5,0,1,1,0,3.5,3.5,3.5,0,0,1,3.5,0Z" transform="translate(71.729 53.035)" fill="#87878b"/>
      <path id="Path_1032-5" data-name="Path 1032" d="M3.5,0A3.5,3.5,0,1,1,0,3.5,3.5,3.5,0,0,1,3.5,0Z" transform="translate(91.729 53.035)" fill="#87878b"/>
      <path id="Path_1032-6" data-name="Path 1032" d="M3.5,0A3.5,3.5,0,1,1,0,3.5,3.5,3.5,0,0,1,3.5,0Z" transform="translate(101.729 53.035)" fill="#87878b"/>
      <path id="Path_1032-7" data-name="Path 1032" d="M3.5,0A3.5,3.5,0,1,1,0,3.5,3.5,3.5,0,0,1,3.5,0Z" transform="translate(141.729 53.035)" fill="#87878b"/>
      <path id="Path_1032-8" data-name="Path 1032" d="M3.5,0A3.5,3.5,0,1,1,0,3.5,3.5,3.5,0,0,1,3.5,0Z" transform="translate(151.729 53.035)" fill="#87878b"/>
      <path id="Path_1032-9" data-name="Path 1032" d="M3.5,0A3.5,3.5,0,1,1,0,3.5,3.5,3.5,0,0,1,3.5,0Z" transform="translate(31.729 66.035)" fill="#87878b"/>
      <path id="Path_1032-10" data-name="Path 1032" d="M3.5,0A3.5,3.5,0,1,1,0,3.5,3.5,3.5,0,0,1,3.5,0Z" transform="translate(51.729 66.035)" fill="#87878b"/>
      <path id="Path_1032-11" data-name="Path 1032" d="M3.5,0A3.5,3.5,0,1,1,0,3.5,3.5,3.5,0,0,1,3.5,0Z" transform="translate(71.729 66.035)" fill="#87878b"/>
      <path id="Path_1032-12" data-name="Path 1032" d="M3.5,0A3.5,3.5,0,1,1,0,3.5,3.5,3.5,0,0,1,3.5,0Z" transform="translate(91.729 66.035)" fill="#87878b"/>
      <path id="Path_1032-13" data-name="Path 1032" d="M3.5,0A3.5,3.5,0,1,1,0,3.5,3.5,3.5,0,0,1,3.5,0Z" transform="translate(141.729 66.035)" fill="#87878b"/>
      <path id="Path_1032-14" data-name="Path 1032" d="M3.5,0A3.5,3.5,0,1,1,0,3.5,3.5,3.5,0,0,1,3.5,0Z" transform="translate(151.729 66.035)" fill="#87878b"/>
      <path id="Path_1032-15" data-name="Path 1032" d="M3.5,0A3.5,3.5,0,1,1,0,3.5,3.5,3.5,0,0,1,3.5,0Z" transform="translate(31.729 79.035)" fill="#87878b"/>
      <path id="Path_1032-16" data-name="Path 1032" d="M3.5,0A3.5,3.5,0,1,1,0,3.5,3.5,3.5,0,0,1,3.5,0Z" transform="translate(41.729 79.035)" fill="#87878b"/>
      <path id="Path_1032-17" data-name="Path 1032" d="M3.5,0A3.5,3.5,0,1,1,0,3.5,3.5,3.5,0,0,1,3.5,0Z" transform="translate(71.729 79.035)" fill="#87878b"/>
      <path id="Path_1032-18" data-name="Path 1032" d="M3.5,0A3.5,3.5,0,1,1,0,3.5,3.5,3.5,0,0,1,3.5,0Z" transform="translate(81.729 79.035)" fill="#87878b"/>
      <path id="Path_1032-19" data-name="Path 1032" d="M3.5,0A3.5,3.5,0,1,1,0,3.5,3.5,3.5,0,0,1,3.5,0Z" transform="translate(101.729 79.035)" fill="#87878b"/>
      <path id="Path_1032-20" data-name="Path 1032" d="M3.5,0A3.5,3.5,0,1,1,0,3.5,3.5,3.5,0,0,1,3.5,0Z" transform="translate(111.729 79.035)" fill="#87878b"/>
      <path id="Path_1032-21" data-name="Path 1032" d="M3.5,0A3.5,3.5,0,1,1,0,3.5,3.5,3.5,0,0,1,3.5,0Z" transform="translate(121.729 79.035)" fill="#87878b"/>
      <path id="Path_1032-22" data-name="Path 1032" d="M3.5,0A3.5,3.5,0,1,1,0,3.5,3.5,3.5,0,0,1,3.5,0Z" transform="translate(181.729 79.035)" fill="#87878b"/>
      <path id="Path_1032-23" data-name="Path 1032" d="M3.5,0A3.5,3.5,0,1,1,0,3.5,3.5,3.5,0,0,1,3.5,0Z" transform="translate(21.729 92.035)" fill="#87878b"/>
      <path id="Path_1032-24" data-name="Path 1032" d="M3.5,0A3.5,3.5,0,1,1,0,3.5,3.5,3.5,0,0,1,3.5,0Z" transform="translate(41.729 92.035)" fill="#87878b"/>
      <path id="Path_1032-25" data-name="Path 1032" d="M3.5,0A3.5,3.5,0,1,1,0,3.5,3.5,3.5,0,0,1,3.5,0Z" transform="translate(61.729 92.035)" fill="#87878b"/>
      <path id="Path_1032-26" data-name="Path 1032" d="M3.5,0A3.5,3.5,0,1,1,0,3.5,3.5,3.5,0,0,1,3.5,0Z" transform="translate(111.729 92.035)" fill="#87878b"/>
      <path id="Path_1032-27" data-name="Path 1032" d="M3.5,0A3.5,3.5,0,1,1,0,3.5,3.5,3.5,0,0,1,3.5,0Z" transform="translate(131.729 92.035)" fill="#87878b"/>
      <path id="Path_1032-28" data-name="Path 1032" d="M3.5,0A3.5,3.5,0,1,1,0,3.5,3.5,3.5,0,0,1,3.5,0Z" transform="translate(151.729 92.035)" fill="#87878b"/>
      <path id="Path_1032-29" data-name="Path 1032" d="M3.5,0A3.5,3.5,0,1,1,0,3.5,3.5,3.5,0,0,1,3.5,0Z" transform="translate(161.729 92.035)" fill="#87878b"/>
      <path id="Path_1032-30" data-name="Path 1032" d="M3.5,0A3.5,3.5,0,1,1,0,3.5,3.5,3.5,0,0,1,3.5,0Z" transform="translate(181.729 92.035)" fill="#87878b"/>
      <path id="Path_1032-31" data-name="Path 1032" d="M3.5,0A3.5,3.5,0,1,1,0,3.5,3.5,3.5,0,0,1,3.5,0Z" transform="translate(51.729 105.035)" fill="#87878b"/>
      <path id="Path_1032-32" data-name="Path 1032" d="M3.5,0A3.5,3.5,0,1,1,0,3.5,3.5,3.5,0,0,1,3.5,0Z" transform="translate(141.729 105.035)" fill="#87878b"/>
      <path id="Path_1032-33" data-name="Path 1032" d="M3.5,0A3.5,3.5,0,1,1,0,3.5,3.5,3.5,0,0,1,3.5,0Z" transform="translate(161.729 105.035)" fill="#87878b"/>
      <path id="Path_1032-34" data-name="Path 1032" d="M3.5,0A3.5,3.5,0,1,1,0,3.5,3.5,3.5,0,0,1,3.5,0Z" transform="translate(21.729 118.035)" fill="#87878b"/>
      <path id="Path_1032-35" data-name="Path 1032" d="M3.5,0A3.5,3.5,0,1,1,0,3.5,3.5,3.5,0,0,1,3.5,0Z" transform="translate(31.729 118.035)" fill="#87878b"/>
      <path id="Path_1032-36" data-name="Path 1032" d="M3.5,0A3.5,3.5,0,1,1,0,3.5,3.5,3.5,0,0,1,3.5,0Z" transform="translate(161.729 118.035)" fill="#87878b"/>
      <path id="Path_1032-37" data-name="Path 1032" d="M3.5,0A3.5,3.5,0,1,1,0,3.5,3.5,3.5,0,0,1,3.5,0Z" transform="translate(171.729 118.035)" fill="#87878b"/>
      <path id="Path_1032-38" data-name="Path 1032" d="M3.5,0A3.5,3.5,0,1,1,0,3.5,3.5,3.5,0,0,1,3.5,0Z" transform="translate(181.729 118.035)" fill="#87878b"/>
    </g>
    <g id="Group_718" data-name="Group 718" transform="translate(-23385.701 11484.337)">
      <g transform="matrix(1, 0, 0, 1, -561.27, -263.96)" filter="url(#Rectangle_884-2)">
        <rect id="Rectangle_884-4" data-name="Rectangle 884" width="212" height="154" rx="22" transform="translate(561 264)" fill="#fff"/>
      </g>
      <g id="Group_661-2" data-name="Group 661" transform="translate(150.2 16.286)" opacity="0.548">
        <circle id="Ellipse_616-10" data-name="Ellipse 616" cx="10" cy="10" r="10" transform="translate(-0.472 -0.25)" fill="#2767fa"/>
      </g>
      <g id="Group_662-2" data-name="Group 662" transform="translate(176.37 16.286)" opacity="0.548">
        <circle id="Ellipse_642-10" data-name="Ellipse 642" cx="10" cy="10" r="10" transform="translate(0.358 -0.25)" fill="#f8333c"/>
      </g>
      <rect id="Rectangle_885-2" data-name="Rectangle 885" width="52" height="5" rx="2.5" transform="translate(12.729 24.035)" fill="#25252c" opacity="0.55"/>
      <rect id="Rectangle_886-7" data-name="Rectangle 886" width="182" height="3" rx="1.5" transform="translate(12.729 55.035)" fill="#25252c" opacity="0.55"/>
      <rect id="Rectangle_886-8" data-name="Rectangle 886" width="182" height="3" rx="1.5" transform="translate(12.729 68.035)" fill="#25252c" opacity="0.55"/>
      <rect id="Rectangle_886-9" data-name="Rectangle 886" width="182" height="3" rx="1.5" transform="translate(12.729 81.035)" fill="#25252c" opacity="0.55"/>
      <rect id="Rectangle_886-10" data-name="Rectangle 886" width="182" height="3" rx="1.5" transform="translate(12.729 94.035)" fill="#25252c" opacity="0.55"/>
      <rect id="Rectangle_886-11" data-name="Rectangle 886" width="182" height="3" rx="1.5" transform="translate(12.729 107.035)" fill="#25252c" opacity="0.55"/>
      <rect id="Rectangle_886-12" data-name="Rectangle 886" width="182" height="3" rx="1.5" transform="translate(12.729 120.035)" fill="#25252c" opacity="0.55"/>
      <path id="Path_1032-39" data-name="Path 1032" d="M3.5,0A3.5,3.5,0,1,1,0,3.5,3.5,3.5,0,0,1,3.5,0Z" transform="translate(21.729 53.035)" fill="#87878b"/>
      <path id="Path_1032-40" data-name="Path 1032" d="M3.5,0A3.5,3.5,0,1,1,0,3.5,3.5,3.5,0,0,1,3.5,0Z" transform="translate(41.729 53.035)" fill="#87878b"/>
      <path id="Path_1032-41" data-name="Path 1032" d="M3.5,0A3.5,3.5,0,1,1,0,3.5,3.5,3.5,0,0,1,3.5,0Z" transform="translate(51.729 53.035)" fill="#87878b"/>
      <path id="Path_1032-42" data-name="Path 1032" d="M3.5,0A3.5,3.5,0,1,1,0,3.5,3.5,3.5,0,0,1,3.5,0Z" transform="translate(71.729 53.035)" fill="#87878b"/>
      <path id="Path_1032-43" data-name="Path 1032" d="M3.5,0A3.5,3.5,0,1,1,0,3.5,3.5,3.5,0,0,1,3.5,0Z" transform="translate(91.729 53.035)" fill="#87878b"/>
      <path id="Path_1032-44" data-name="Path 1032" d="M3.5,0A3.5,3.5,0,1,1,0,3.5,3.5,3.5,0,0,1,3.5,0Z" transform="translate(101.729 53.035)" fill="#87878b"/>
      <path id="Path_1032-45" data-name="Path 1032" d="M3.5,0A3.5,3.5,0,1,1,0,3.5,3.5,3.5,0,0,1,3.5,0Z" transform="translate(141.729 53.035)" fill="#87878b"/>
      <path id="Path_1032-46" data-name="Path 1032" d="M3.5,0A3.5,3.5,0,1,1,0,3.5,3.5,3.5,0,0,1,3.5,0Z" transform="translate(151.729 53.035)" fill="#87878b"/>
      <path id="Path_1032-47" data-name="Path 1032" d="M3.5,0A3.5,3.5,0,1,1,0,3.5,3.5,3.5,0,0,1,3.5,0Z" transform="translate(31.729 66.035)" fill="#87878b"/>
      <path id="Path_1032-48" data-name="Path 1032" d="M3.5,0A3.5,3.5,0,1,1,0,3.5,3.5,3.5,0,0,1,3.5,0Z" transform="translate(51.729 66.035)" fill="#87878b"/>
      <path id="Path_1032-49" data-name="Path 1032" d="M3.5,0A3.5,3.5,0,1,1,0,3.5,3.5,3.5,0,0,1,3.5,0Z" transform="translate(71.729 66.035)" fill="#87878b"/>
      <path id="Path_1032-50" data-name="Path 1032" d="M3.5,0A3.5,3.5,0,1,1,0,3.5,3.5,3.5,0,0,1,3.5,0Z" transform="translate(91.729 66.035)" fill="#87878b"/>
      <path id="Path_1032-51" data-name="Path 1032" d="M3.5,0A3.5,3.5,0,1,1,0,3.5,3.5,3.5,0,0,1,3.5,0Z" transform="translate(141.729 66.035)" fill="#87878b"/>
      <path id="Path_1032-52" data-name="Path 1032" d="M3.5,0A3.5,3.5,0,1,1,0,3.5,3.5,3.5,0,0,1,3.5,0Z" transform="translate(151.729 66.035)" fill="#87878b"/>
      <path id="Path_1032-53" data-name="Path 1032" d="M3.5,0A3.5,3.5,0,1,1,0,3.5,3.5,3.5,0,0,1,3.5,0Z" transform="translate(31.729 79.035)" fill="#87878b"/>
      <path id="Path_1032-54" data-name="Path 1032" d="M3.5,0A3.5,3.5,0,1,1,0,3.5,3.5,3.5,0,0,1,3.5,0Z" transform="translate(41.729 79.035)" fill="#87878b"/>
      <path id="Path_1032-55" data-name="Path 1032" d="M3.5,0A3.5,3.5,0,1,1,0,3.5,3.5,3.5,0,0,1,3.5,0Z" transform="translate(71.729 79.035)" fill="#87878b"/>
      <path id="Path_1032-56" data-name="Path 1032" d="M3.5,0A3.5,3.5,0,1,1,0,3.5,3.5,3.5,0,0,1,3.5,0Z" transform="translate(81.729 79.035)" fill="#87878b"/>
      <path id="Path_1032-57" data-name="Path 1032" d="M3.5,0A3.5,3.5,0,1,1,0,3.5,3.5,3.5,0,0,1,3.5,0Z" transform="translate(101.729 79.035)" fill="#87878b"/>
      <path id="Path_1032-58" data-name="Path 1032" d="M3.5,0A3.5,3.5,0,1,1,0,3.5,3.5,3.5,0,0,1,3.5,0Z" transform="translate(111.729 79.035)" fill="#87878b"/>
      <path id="Path_1032-59" data-name="Path 1032" d="M3.5,0A3.5,3.5,0,1,1,0,3.5,3.5,3.5,0,0,1,3.5,0Z" transform="translate(121.729 79.035)" fill="#87878b"/>
      <path id="Path_1032-60" data-name="Path 1032" d="M3.5,0A3.5,3.5,0,1,1,0,3.5,3.5,3.5,0,0,1,3.5,0Z" transform="translate(181.729 79.035)" fill="#87878b"/>
      <path id="Path_1032-61" data-name="Path 1032" d="M3.5,0A3.5,3.5,0,1,1,0,3.5,3.5,3.5,0,0,1,3.5,0Z" transform="translate(21.729 92.035)" fill="#87878b"/>
      <path id="Path_1032-62" data-name="Path 1032" d="M3.5,0A3.5,3.5,0,1,1,0,3.5,3.5,3.5,0,0,1,3.5,0Z" transform="translate(41.729 92.035)" fill="#87878b"/>
      <path id="Path_1032-63" data-name="Path 1032" d="M3.5,0A3.5,3.5,0,1,1,0,3.5,3.5,3.5,0,0,1,3.5,0Z" transform="translate(61.729 92.035)" fill="#87878b"/>
      <path id="Path_1032-64" data-name="Path 1032" d="M3.5,0A3.5,3.5,0,1,1,0,3.5,3.5,3.5,0,0,1,3.5,0Z" transform="translate(111.729 92.035)" fill="#87878b"/>
      <path id="Path_1032-65" data-name="Path 1032" d="M3.5,0A3.5,3.5,0,1,1,0,3.5,3.5,3.5,0,0,1,3.5,0Z" transform="translate(131.729 92.035)" fill="#87878b"/>
      <path id="Path_1032-66" data-name="Path 1032" d="M3.5,0A3.5,3.5,0,1,1,0,3.5,3.5,3.5,0,0,1,3.5,0Z" transform="translate(151.729 92.035)" fill="#87878b"/>
      <path id="Path_1032-67" data-name="Path 1032" d="M3.5,0A3.5,3.5,0,1,1,0,3.5,3.5,3.5,0,0,1,3.5,0Z" transform="translate(161.729 92.035)" fill="#87878b"/>
      <path id="Path_1032-68" data-name="Path 1032" d="M3.5,0A3.5,3.5,0,1,1,0,3.5,3.5,3.5,0,0,1,3.5,0Z" transform="translate(181.729 92.035)" fill="#87878b"/>
      <path id="Path_1032-69" data-name="Path 1032" d="M3.5,0A3.5,3.5,0,1,1,0,3.5,3.5,3.5,0,0,1,3.5,0Z" transform="translate(51.729 105.035)" fill="#87878b"/>
      <path id="Path_1032-70" data-name="Path 1032" d="M3.5,0A3.5,3.5,0,1,1,0,3.5,3.5,3.5,0,0,1,3.5,0Z" transform="translate(141.729 105.035)" fill="#87878b"/>
      <path id="Path_1032-71" data-name="Path 1032" d="M3.5,0A3.5,3.5,0,1,1,0,3.5,3.5,3.5,0,0,1,3.5,0Z" transform="translate(161.729 105.035)" fill="#87878b"/>
      <path id="Path_1032-72" data-name="Path 1032" d="M3.5,0A3.5,3.5,0,1,1,0,3.5,3.5,3.5,0,0,1,3.5,0Z" transform="translate(21.729 118.035)" fill="#87878b"/>
      <path id="Path_1032-73" data-name="Path 1032" d="M3.5,0A3.5,3.5,0,1,1,0,3.5,3.5,3.5,0,0,1,3.5,0Z" transform="translate(31.729 118.035)" fill="#87878b"/>
      <path id="Path_1032-74" data-name="Path 1032" d="M3.5,0A3.5,3.5,0,1,1,0,3.5,3.5,3.5,0,0,1,3.5,0Z" transform="translate(161.729 118.035)" fill="#87878b"/>
      <path id="Path_1032-75" data-name="Path 1032" d="M3.5,0A3.5,3.5,0,1,1,0,3.5,3.5,3.5,0,0,1,3.5,0Z" transform="translate(171.729 118.035)" fill="#87878b"/>
      <path id="Path_1032-76" data-name="Path 1032" d="M3.5,0A3.5,3.5,0,1,1,0,3.5,3.5,3.5,0,0,1,3.5,0Z" transform="translate(181.729 118.035)" fill="#87878b"/>
    </g>
    <g id="Group_675" data-name="Group 675" transform="translate(-23252.525 11236.567)">
      <g id="Group_579" data-name="Group 579" transform="translate(0 0)">
        <path id="Path_974" data-name="Path 974" d="M17.289,0A17.289,17.289,0,1,1,0,17.289,17.289,17.289,0,0,1,17.289,0Z" fill="#fff"/>
        <path id="Union_35" data-name="Union 35" d="M8.623,10A1,1,0,0,1,8.5,9.992,1,1,0,0,1,8.376,10H.986A.985.985,0,0,1,0,9.014V8.376A8.376,8.376,0,0,1,8.376,0,1,1,0,0,1,8.5.008,1,1,0,0,1,8.623,0,8.377,8.377,0,0,1,17,8.376v.638a.986.986,0,0,1-.986.985Z" transform="translate(9.553 16.805)" fill="#3e424e"/>
        <ellipse id="Ellipse_700" data-name="Ellipse 700" cx="7" cy="6.5" rx="7" ry="6.5" transform="translate(10.553 6.805)" fill="#fff"/>
        <path id="Path_1002" data-name="Path 1002" d="M5.22,0a5.371,5.371,0,0,1,5.22,5.51,5.371,5.371,0,0,1-5.22,5.51A5.371,5.371,0,0,1,0,5.51,5.371,5.371,0,0,1,5.22,0Z" transform="translate(12.069 8.01)" fill="#3e424e"/>
      </g>
    </g>
    <g id="Group_678" data-name="Group 678" transform="translate(-24812.973 11020.372)">
      <circle id="Ellipse_720" data-name="Ellipse 720" cx="7" cy="7" r="7" transform="translate(925 224)" fill="#f8323b"/>
      <circle id="Ellipse_721" data-name="Ellipse 721" cx="7" cy="7" r="7" transform="translate(948 224)" fill="#f8ca32"/>
      <circle id="Ellipse_722" data-name="Ellipse 722" cx="7" cy="7" r="7" transform="translate(971 224)" fill="#32f850"/>
    </g>
  </g>
</svg>
