<svg xmlns="http://www.w3.org/2000/svg" width="47" height="29.752" viewBox="0 0 47 29.752">
  <g id="Group_689" data-name="Group 689" transform="translate(-190 -1650.248)">
    <path id="Path_1006" data-name="Path 1006" d="M23.264-3.04a2.571,2.571,0,0,1,.256,1.024A1.939,1.939,0,0,1,22.8-.5a2.444,2.444,0,0,1-1.648.624A2.157,2.157,0,0,1,20-.208a2.125,2.125,0,0,1-.832-1.008l-1.7-3.776H6.624l-1.7,3.776A2.159,2.159,0,0,1,4.112-.208,2.131,2.131,0,0,1,2.944.128,2.5,2.5,0,0,1,1.28-.5a1.923,1.923,0,0,1-.736-1.52A2.571,2.571,0,0,1,.8-3.04L9.44-21.184A2.5,2.5,0,0,1,10.5-22.352a3,3,0,0,1,1.5-.4,2.965,2.965,0,0,1,1.536.416,2.832,2.832,0,0,1,1.088,1.152ZM8.32-8.768h7.456l-3.712-8.32Z" transform="translate(201 1673)" fill="#2767fa"/>
    <path id="Path_1007" data-name="Path 1007" d="M2,0H45a2,2,0,0,1,0,4H2A2,2,0,0,1,2,0Z" transform="translate(190 1676)" fill="#2767fa"/>
  </g>
</svg>
