<svg xmlns="http://www.w3.org/2000/svg" width="47" height="23" viewBox="0 0 47 23">
  <g id="Group_690" data-name="Group 690" transform="translate(-190 -1821)">
    <path id="Path_1008" data-name="Path 1008" d="M2.5,0h42a2.5,2.5,0,0,1,0,5H2.5a2.5,2.5,0,0,1,0-5Z" transform="translate(190 1830)" fill="#2767fa"/>
    <g id="Path_1009" data-name="Path 1009" transform="translate(202 1821)" fill="#fff">
      <path d="M 11.5 21.5 C 5.985980033874512 21.5 1.5 17.0140209197998 1.5 11.5 C 1.5 5.985980033874512 5.985980033874512 1.5 11.5 1.5 C 17.0140209197998 1.5 21.5 5.985980033874512 21.5 11.5 C 21.5 17.0140209197998 17.0140209197998 21.5 11.5 21.5 Z" stroke="none"/>
      <path d="M 11.5 3 C 6.813079833984375 3 3 6.813079833984375 3 11.5 C 3 16.18692016601562 6.813079833984375 20 11.5 20 C 16.18692016601562 20 20 16.18692016601562 20 11.5 C 20 6.813079833984375 16.18692016601562 3 11.5 3 M 11.5 0 C 17.85127067565918 0 23 5.14872932434082 23 11.5 C 23 17.85127067565918 17.85127067565918 23 11.5 23 C 5.14872932434082 23 0 17.85127067565918 0 11.5 C 0 5.14872932434082 5.14872932434082 0 11.5 0 Z" stroke="none" fill="#2767fa"/>
    </g>
  </g>
</svg>
